<svg xmlns="http://www.w3.org/2000/svg" xmlns:xlink="http://www.w3.org/1999/xlink" width="1366" zoomAndPan="magnify" viewBox="0 0 1024.5 576" height="768" preserveAspectRatio="xMidYMid meet" version="1.0"><defs><g/></defs><g fill="#ffffff" fill-opacity="1"><g transform="translate(21.739563, 290.996355)"><g><path d="M 3.1875 -15.140625 L 12.890625 -60.5625 C 15.015625 -70.644531 21.125 -75.6875 31.21875 -75.6875 L 122.0625 -75.6875 L 118.859375 -60.5625 L 28.03125 -60.5625 L 18.328125 -15.140625 L 109.15625 -15.140625 L 105.96875 0 L 15.140625 0 C 5.046875 0 1.0625 -5.046875 3.1875 -15.140625 Z M 3.1875 -15.140625 "/></g></g></g><g fill="#ffffff" fill-opacity="1"><g transform="translate(157.865396, 290.996355)"><g><path d="M 31.21875 -75.6875 L 24.84375 -45.421875 L 100.53125 -45.421875 L 106.921875 -75.6875 L 122.0625 -75.6875 L 105.96875 0 L 90.828125 0 L 97.21875 -30.28125 L 21.53125 -30.28125 L 15.140625 0 L 0 0 L 16.078125 -75.6875 Z M 31.21875 -75.6875 "/></g></g></g><g fill="#ffffff" fill-opacity="1"><g transform="translate(293.991228, 290.996355)"><g><path d="M 15.140625 0 L 0 0 L 12.890625 -60.5625 C 15.015625 -70.644531 21.125 -75.6875 31.21875 -75.6875 L 106.921875 -75.6875 C 117.015625 -75.6875 120.992188 -70.644531 118.859375 -60.5625 L 105.96875 0 L 90.828125 0 L 97.21875 -30.28125 L 36.65625 -30.28125 L 39.96875 -45.421875 L 100.53125 -45.421875 L 103.71875 -60.5625 L 28.03125 -60.5625 Z M 15.140625 0 "/></g></g></g><g fill="#ffffff" fill-opacity="1"><g transform="translate(430.117037, 290.996355)"><g><path d="M 90.828125 0 L 15.140625 0 C 5.046875 0 1.0625 -5.046875 3.1875 -15.140625 L 16.078125 -75.6875 L 31.21875 -75.6875 L 18.328125 -15.140625 L 94.03125 -15.140625 L 106.921875 -75.6875 L 122.0625 -75.6875 L 109.15625 -15.140625 C 107.03125 -5.046875 100.921875 0 90.828125 0 Z M 90.828125 0 "/></g></g></g><g fill="#ffffff" fill-opacity="1"><g transform="translate(566.242892, 290.996355)"><g><path d="M 16.078125 -75.6875 L 122.0625 -75.6875 L 118.859375 -60.5625 L 73.453125 -60.5625 L 60.5625 0 L 45.421875 0 L 58.3125 -60.5625 L 12.890625 -60.5625 Z M 16.078125 -75.6875 "/></g></g></g><g fill="#ffffff" fill-opacity="1"><g transform="translate(702.368748, 290.996355)"><g><path d="M 15.140625 0 L 0 0 L 12.890625 -60.5625 C 15.015625 -70.644531 21.125 -75.6875 31.21875 -75.6875 L 106.921875 -75.6875 C 117.015625 -75.6875 120.992188 -70.644531 118.859375 -60.5625 L 105.96875 0 L 90.828125 0 L 97.21875 -30.28125 L 36.65625 -30.28125 L 39.96875 -45.421875 L 100.53125 -45.421875 L 103.71875 -60.5625 L 28.03125 -60.5625 Z M 15.140625 0 "/></g></g></g><g fill="#ffffff" fill-opacity="1"><g transform="translate(838.494603, 290.996355)"><g><path d="M 15.140625 0 L 0 0 L 16.078125 -75.6875 L 106.921875 -75.6875 C 117.015625 -75.6875 120.992188 -70.644531 118.859375 -60.5625 L 115.671875 -45.421875 C 113.460938 -35.328125 107.390625 -30.28125 97.453125 -30.28125 L 82.078125 -30.28125 L 105.96875 0 L 87.046875 0 L 63.15625 -30.28125 L 36.65625 -30.28125 L 39.96875 -45.421875 L 100.53125 -45.421875 L 103.71875 -60.5625 L 28.03125 -60.5625 Z M 15.140625 0 "/></g></g></g><g fill="#ffffff" fill-opacity="1"><g transform="translate(974.620459, 290.996355)"><g><path d="M 31.21875 -75.6875 L 15.140625 0 L 0 0 L 16.078125 -75.6875 Z M 31.21875 -75.6875 "/></g></g></g></svg>